<?xml version="1.0" encoding="utf-8"?>
<!-- Generator: Adobe Illustrator 23.0.6, SVG Export Plug-In . SVG Version: 6.00 Build 0)  -->
<svg version="1.1" id="Layer_1" xmlns="http://www.w3.org/2000/svg" xmlns:xlink="http://www.w3.org/1999/xlink" x="0px" y="0px"
	 viewBox="0 0 1920 1080" style="enable-background:new 0 0 1920 1080;" xml:space="preserve">
<style type="text/css">
	.st0{opacity:0.3;fill:#626282;stroke:#3999D5;stroke-width:5;stroke-miterlimit:10;enable-background:new    ;}
	.st1{opacity:0.3;fill:#3999D5;stroke:#3999D5;stroke-width:5;stroke-miterlimit:10;enable-background:new    ;}
	.st2{fill:none;stroke:#C1272D;stroke-width:4;stroke-miterlimit:10;}
</style>
<path class="st0" d="M858.72,930.42c11.74-19.97,18.27-40.19,13.74-57.83h-0.01c-5.43-24.45-27.23-42.74-53.32-42.74
	c-30.18,0-54.64,24.46-54.64,54.64c0-30.18-24.46-54.64-54.64-54.64c-26.09,0-47.89,18.29-53.32,42.74h-0.01
	c-4.53,17.63,2,37.86,13.74,57.83H858.72z"/>
<path class="st1" d="M676.1,945.08c31.78,47.66,88.39,91.27,88.39,91.27s56.6-43.62,88.39-91.27L676.1,945.08L676.1,945.08z"/>
<polyline class="st2" points="631.22,928.82 681.85,928.82 692.11,901.08 709.21,956.56 728.37,829.84 750.94,1010.15 
	762.57,910.54 766.68,941.43 797.46,941.43 807.04,844.34 816.62,998.17 828.25,904.24 833.72,938.28 906.92,938.28 "/>
</svg>
